<?xml version="1.0" encoding="UTF-8" standalone="no"?>
<!DOCTYPE svg PUBLIC "-//W3C//DTD SVG 1.1//EN" "http://www.w3.org/Graphics/SVG/1.1/DTD/svg11.dtd">
<!--Generated by Intaglio, www.PurgatoryDesign.com-->
<svg version="1.1" viewBox="0,0,783,559" width="783" height="559" xmlns="http://www.w3.org/2000/svg" xmlns:xlink="http://www.w3.org/1999/xlink" xmlns:intaglio="http://purgatorydesign.com/namespaces/intaglio" intaglio:grid="36,36,1,1,0.5,#9999bf,1,0,0,0" intaglio:guides="0.8,#f0f,1,1"><defs><radialGradient id="6000020af600" gradientUnits="userSpaceOnUse"><stop offset="0" stop-color="#fff"/><stop offset="0.0604" stop-color="#fbc8b4"/><stop offset="0.0712" stop-color="#fbc3b0"/><stop offset="0.1829" stop-color="#f7978b"/><stop offset="0.2995" stop-color="#f4716b"/><stop offset="0.4199" stop-color="#f15251"/><stop offset="0.5453" stop-color="#ef3a3d"/><stop offset="0.6778" stop-color="#ee292f"/><stop offset="0.822" stop-color="#ed1f27"/><stop offset="1" stop-color="#ed1c24"/></radialGradient></defs><g><path d="M739.805,352.606 L739.805,360.947 L723.816,360.947 L723.816,383.957 C723.816,388.208,725.279,390.333,728.205,390.333 C731.42,390.333,733.027,387.76,733.027,382.615 L733.027,380.793 L741.5,380.793 L741.5,383.094 C741.5,385.203,741.442,387.009,741.326,388.511 C740.776,395.51,736.054,399.009,727.162,399.009 C718.298,399.009,713.866,394.519,713.866,385.539 L713.866,360.947 L708.479,360.947 L708.479,352.606 L713.866,352.606 L714,333 L723.5,333 L723.816,352.606 Z"/><path fill-rule="evenodd" d="M694.705,383.765 L704.698,383.765 L704.698,385.539 C704.698,394.487,698.616,398.961,686.45,398.961 C678.194,398.961,672.792,397.411,670.243,394.312 C667.694,391.212,666.42,384.644,666.42,374.609 C666.42,365.693,667.752,359.701,670.417,356.633 C673.082,353.565,678.281,352.031,686.015,352.031 C693.431,352.031,698.398,353.525,700.918,356.513 C703.438,359.501,704.698,365.374,704.698,374.13 L704.698,377.486 L676.587,377.486 C676.529,378.508,676.5,379.179,676.5,379.499 C676.5,384.005,677.13,387.009,678.39,388.511 C679.65,390.013,682.163,390.764,685.928,390.764 C689.578,390.764,691.953,390.325,693.054,389.446 C694.155,388.567,694.705,386.674,694.705,383.765 Z M694.792,370.774 L694.749,368.953 C694.749,365.31,694.176,362.945,693.032,361.858 C691.888,360.772,689.404,360.228,685.581,360.228 C681.873,360.228,679.462,360.883,678.346,362.194 C677.231,363.504,676.674,366.364,676.674,370.774 L694.792,370.774 Z"/><path d="M635.136,333 L635.136,370.439 L637.7,370.439 L648.91,352.606 L660.467,352.606 L645.998,374.178 L663.422,398.434 L651.082,398.434 L637.569,378.109 L635.136,378.109 L635.136,398.434 L625.186,398.434 L625.186,333 Z"/><path d="M607.98,380.937 L617.887,380.937 L617.887,382.519 L617.279,389.47 C616.062,395.798,610.124,398.961,599.464,398.961 C591.643,398.961,586.444,397.403,583.866,394.288 C581.288,391.172,579.999,384.9,579.999,375.472 C579.999,366.268,581.288,360.068,583.866,356.873 C586.444,353.677,591.455,352.079,598.899,352.079 C606.083,352.079,610.949,353.237,613.498,355.554 C616.047,357.871,617.322,362.274,617.322,368.761 L607.459,368.761 C607.459,363.424,604.664,360.756,599.073,360.756 C595.105,360.756,592.614,361.602,591.6,363.296 C590.586,364.99,590.079,369.145,590.079,375.76 C590.079,382.151,590.637,386.17,591.752,387.816 C592.867,389.462,595.597,390.285,599.942,390.285 C603.36,390.285,605.554,389.718,606.525,388.583 C607.495,387.449,607.98,384.9,607.98,380.937 Z"/><path fill-rule="evenodd" d="M553.712,352.079 C561.736,352.079,566.993,353.493,569.484,356.321 C571.975,359.15,573.221,365.118,573.221,374.226 C573.221,384.389,572.004,391.052,569.571,394.216 C567.138,397.38,562.011,398.961,554.19,398.961 C545.703,398.961,540.207,397.491,537.701,394.551 C535.196,391.611,533.943,385.14,533.943,375.137 C533.943,365.517,535.174,359.27,537.636,356.393 C540.098,353.517,545.457,352.079,553.712,352.079 Z M553.625,360.756 C549.483,360.756,546.847,361.578,545.718,363.224 C544.588,364.87,544.023,368.713,544.023,374.753 C544.023,381.656,544.559,385.97,545.631,387.696 C546.702,389.422,549.382,390.285,553.669,390.285 C557.811,390.285,560.425,389.374,561.511,387.552 C562.598,385.731,563.141,381.353,563.141,374.418 C563.141,368.569,562.576,364.83,561.446,363.2 C560.317,361.571,557.71,360.756,553.625,360.756 Z"/><path d="M526.122,365.214 L516.389,365.214 C516.331,364.83,516.288,364.543,516.259,364.351 C516.056,362.146,515.484,360.772,514.543,360.228 C513.601,359.685,511.32,359.413,507.699,359.413 C502.514,359.413,499.922,361.267,499.922,364.974 C499.922,367.499,500.378,369.001,501.291,369.48 C502.203,369.959,505.295,370.343,510.567,370.631 C517.664,371.014,522.284,372.053,524.427,373.747 C526.571,375.44,527.643,378.908,527.643,384.149 C527.643,389.742,526.216,393.616,523.363,395.774 C520.51,397.931,515.39,399.009,508.004,399.009 C500.907,399.009,496.055,398.035,493.448,396.085 C490.841,394.136,489.538,390.493,489.538,385.156 L489.538,384.005 L499.879,384.005 C499.734,384.644,499.647,385.156,499.618,385.539 C499.212,389.598,502.051,391.627,508.134,391.627 C514.42,391.627,517.562,389.614,517.562,385.587 C517.562,381.72,515.593,379.787,511.653,379.787 C502.761,379.787,496.902,378.86,494.078,377.006 C491.254,375.153,489.842,371.302,489.842,365.453 C489.842,360.212,491.131,356.665,493.709,354.811 C496.287,352.958,501.24,352.031,508.568,352.031 C515.491,352.031,520.148,352.926,522.537,354.716 C524.927,356.505,526.122,360.005,526.122,365.214 Z"/><path d="M485.497,352.606 L473.418,374.178 L486.844,398.434 L474.939,398.434 L466.596,381.8 L458.471,398.434 L446.262,398.434 L459.862,374.322 L447.87,352.606 L459.731,352.606 L466.596,367.131 L473.635,352.606 Z"/><path d="M441.743,352.606 L441.743,398.434 L431.794,398.434 L431.794,352.606 Z"/><path d="M441.743,333 L441.743,342.156 L431.794,342.156 L431.794,333 Z"/><path d="M384.608,352.606 L394.471,352.606 L394.08,360.324 L394.297,360.372 C396.238,354.843,400.582,352.079,407.332,352.079 C417.151,352.079,422.061,357.128,422.061,367.227 L422.061,398.434 L412.111,398.434 L412.111,370.822 L412.111,369.097 L411.894,365.885 C411.43,362.465,408.997,360.756,404.594,360.756 C397.903,360.756,394.558,364.255,394.558,371.254 L394.558,398.434 L384.608,398.434 Z"/><path d="M374.527,352.606 L374.527,398.434 L364.578,398.434 L365.142,390.572 L364.969,390.525 C363.028,396.149,358.567,398.961,351.586,398.961 C342.172,398.961,337.465,393.768,337.465,383.382 L337.465,352.606 L347.415,352.606 L347.415,380.745 C347.415,384.644,347.907,387.209,348.892,388.439 C349.877,389.67,351.919,390.285,355.019,390.285 C361.391,390.285,364.578,386.066,364.578,377.629 L364.578,352.606 Z"/><path d="M327.776,333 L327.776,342.156 L317.826,342.156 L317.826,333 Z"/><path fill-rule="evenodd" d="M327.776,352.606 L327.762,373.833 L327.776,375.92 L327.776,384.261 L327.776,408.852 C327.757,409.86,327.75,410.037,327.737,410.209 L327.733,417.4 C327.735,415.036,327.725,412.814,327.7,410.769 C326.906,418.635,322.513,422.323,314.48,422.323 C305.297,422.101,300.849,418.605,300.316,411.825 C300.175,409.401,300.142,407.99,300.142,406.408 L300.142,404.107 L308.615,404.107 L308.615,405.928 C308.822,411.385,310.423,413.646,313.438,413.646 C316.3,413.395,317.574,411.635,317.788,408.334 L317.826,352.606 L327.776,352.606 Z"/></g><g><path fill="none" stroke="#000" stroke-opacity="0.01" stroke-width="0.25" d="M337.027,11.338 L678.692,11.338 L678.692,319.5 L337.027,319.5 L337.027,11.338 Z"/><g><path fill="#fff" fill-rule="evenodd" d="M579.185,308.709 C605.171,305.606,632.321,276.905,644.344,239.283 C649.387,224.932,651.326,211.745,651.326,195.843 C651.326,179.941,649.387,166.754,644.344,152.403 C632.321,114.781,605.171,86.0797,579.185,82.9768 C574.53,82.5889,438.781,82.5889,434.126,82.9768 C418.224,84.9161,401.546,96.5518,387.971,114.781 C373.621,133.786,364.7,158.221,362.373,183.819 C361.597,190.413,361.985,207.479,362.761,213.684 C366.639,241.222,377.887,266.433,394.565,285.05 C406.201,298.237,420.939,307.158,433.738,308.709 C437.617,309.097,575.306,309.097,579.185,308.709 Z"/><path fill="#090909" fill-rule="evenodd" d="M579.185,308.709 C605.171,305.606,632.321,276.905,644.344,239.283 C649.387,224.932,651.326,211.745,651.326,195.843 C651.326,179.941,649.387,166.754,644.344,152.403 C632.321,114.781,605.171,86.0797,579.185,82.9768 C574.53,82.5889,438.781,82.5889,434.126,82.9768 C418.224,84.9161,401.546,96.5518,387.971,114.781 C373.621,133.786,364.7,158.221,362.373,183.819 C361.597,190.413,361.985,207.479,362.761,213.684 C366.639,241.222,377.887,266.433,394.565,285.05 C406.201,298.237,420.939,307.158,433.738,308.709 C437.617,309.097,575.306,309.097,579.185,308.709 Z M432.963,299.401 C413.958,295.134,393.789,274.966,382.154,248.591 C367.415,215.236,367.415,176.45,382.154,143.095 C387.971,129.52,394.953,119.435,404.649,109.351 C413.182,101.206,420.164,96.5518,428.696,93.8368 C433.351,92.2854,433.351,92.2854,506.655,92.2854 C588.105,92.2854,580.348,91.8975,587.33,94.6125 C603.619,101.206,621.073,120.211,631.157,143.095 C644.344,172.184,645.896,205.927,635.812,236.568 C631.933,248.204,628.054,256.736,621.461,266.821 C609.825,283.886,594.311,296.298,580.348,299.401 C576.857,300.176,436.453,300.176,432.963,299.401 Z M463.603,188.474 C463.991,188.474,464.767,187.698,465.155,186.922 C465.931,186.147,465.931,185.759,465.931,155.506 C465.931,131.847,465.931,124.477,465.543,123.702 L463.991,122.15 C462.828,121.375,462.052,120.987,457.398,120.987 C450.804,120.987,449.641,121.375,448.477,123.702 C447.701,124.865,447.701,127.192,447.701,155.118 C447.701,188.862,447.701,187.31,450.416,188.474 C451.58,189.249,452.356,189.249,457.398,189.249 C460.113,188.862,463.216,188.862,463.603,188.474 Z M562.895,184.207 C563.282,183.819,564.058,183.044,564.834,182.268 C565.61,181.104,565.61,181.104,565.61,155.506 C565.61,127.968,565.61,128.356,563.67,126.805 C562.895,126.029,562.119,125.641,557.077,125.641 C552.422,125.641,551.259,125.641,550.095,126.417 C547.38,127.58,547.38,126.417,547.38,155.118 C547.38,183.819,547.38,182.656,549.707,183.819 C551.259,184.595,561.343,184.983,562.895,184.207 Z"/><path fill="#090909" fill-rule="evenodd" d="M538.511,90.402 C539.572,89.8761,541.164,88.8243,541.694,87.7725 C542.756,86.7207,542.756,86.1948,542.756,68.3143 C542.756,51.4856,542.756,49.382,541.694,45.7008 C539.042,34.6569,531.083,26.2426,521.002,22.5613 C502.432,15.7247,482.801,25.1908,476.434,43.5972 C475.373,46.7525,475.373,48.3302,474.842,66.7366 C474.842,86.7207,474.842,86.7207,475.903,87.7725 C478.026,90.9279,478.026,90.9279,508.799,90.9279 C531.614,90.9279,537.45,90.9279,538.511,90.402 Z"/><path d="M606.675,159.953 C608.932,159.754,611.27,159.447,613.855,159.025 C615.757,158.715,617.048,156.92,616.737,155.018 C616.427,153.115,614.632,151.825,612.73,152.135 C610.304,152.531,608.133,152.816,606.063,152.998 C604.143,153.167,602.723,154.861,602.892,156.781 C603.061,158.702,604.755,160.122,606.675,159.953 Z M620.824,157.757 C620.983,157.726,621.083,157.707,621.343,157.657 C624.895,156.969,625.94,156.771,627.625,156.476 C629.524,156.143,630.794,154.334,630.462,152.435 C630.129,150.536,628.32,149.267,626.421,149.599 C624.678,149.904,623.613,150.106,620.016,150.803 C619.758,150.852,619.658,150.872,619.5,150.902 C617.607,151.268,616.369,153.099,616.734,154.992 C617.1,156.885,618.931,158.123,620.824,157.757 Z M634.291,155.516 C636.64,155.274,638.78,155.182,640.792,155.25 C642.718,155.315,644.333,153.806,644.398,151.879 C644.463,149.952,642.954,148.338,641.027,148.273 C638.677,148.193,636.224,148.298,633.576,148.571 C631.659,148.768,630.264,150.483,630.462,152.401 C630.659,154.319,632.374,155.713,634.291,155.516 Z M646.988,156.07 C647.116,156.101,647.244,156.134,647.371,156.167 C649.05,156.608,650.828,157.342,652.583,158.323 C654.266,159.263,656.393,158.662,657.333,156.979 C658.274,155.296,657.672,153.169,655.989,152.229 C653.736,150.969,651.413,150.011,649.145,149.415 C648.983,149.372,648.82,149.331,648.658,149.291 C646.786,148.83,644.894,149.974,644.433,151.845 C643.972,153.717,645.116,155.609,646.988,156.07 Z M657.619,161.929 C659.194,163.346,660.554,164.899,661.624,166.513 C662.689,168.12,664.855,168.56,666.462,167.495 C668.069,166.43,668.508,164.264,667.443,162.657 C666.038,160.536,664.289,158.539,662.288,156.738 C660.854,155.449,658.647,155.566,657.358,157 C656.069,158.433,656.186,160.64,657.619,161.929 Z M663.96,171.729 C664.059,172.153,664.134,172.575,664.186,172.994 C664.402,174.755,664.603,176.5,664.79,178.235 C664.996,180.152,666.717,181.539,668.634,181.333 C670.551,181.127,671.937,179.406,671.731,177.489 C671.541,175.718,671.336,173.938,671.115,172.14 C671.032,171.473,670.914,170.809,670.76,170.147 C670.323,168.269,668.447,167.101,666.569,167.538 C664.691,167.975,663.523,169.851,663.96,171.729 Z M665.459,185.116 C665.659,187.423,665.834,189.718,665.984,192.005 C666.11,193.929,667.772,195.386,669.696,195.259 C671.62,195.133,673.077,193.471,672.95,191.547 C672.797,189.211,672.618,186.868,672.414,184.512 C672.247,182.592,670.555,181.17,668.634,181.336 C666.714,181.503,665.292,183.195,665.459,185.116 Z M666.365,198.904 C666.468,201.201,666.547,203.499,666.604,205.81 C666.651,207.737,668.252,209.261,670.179,209.214 C672.106,209.166,673.63,207.566,673.583,205.638 C673.525,203.281,673.444,200.936,673.339,198.592 C673.253,196.666,671.622,195.175,669.696,195.261 C667.77,195.347,666.279,196.978,666.365,198.904 Z M666.707,212.723 C666.719,214.998,666.712,217.299,666.685,219.643 C666.663,221.571,668.207,223.152,670.135,223.174 C672.063,223.196,673.644,221.651,673.666,219.724 C673.693,217.341,673.701,215,673.688,212.684 C673.677,210.757,672.106,209.202,670.178,209.213 C668.25,209.224,666.696,210.795,666.707,212.723 Z M666.553,226.579 C666.495,228.816,666.421,231.113,666.331,233.517 C666.258,235.443,667.762,237.064,669.688,237.136 C671.615,237.208,673.235,235.705,673.307,233.778 C673.398,231.349,673.473,229.025,673.532,226.761 C673.582,224.834,672.06,223.231,670.133,223.18 C668.206,223.13,666.603,224.652,666.553,226.579 Z M666.041,240.463 C665.944,242.585,665.837,244.811,665.706,247.421 C665.61,249.346,667.093,250.985,669.019,251.081 C670.944,251.177,672.583,249.694,672.679,247.769 C672.81,245.15,672.918,242.914,673.015,240.78 C673.102,238.854,671.612,237.222,669.686,237.135 C667.76,237.047,666.128,238.537,666.041,240.463 Z M665.353,254.39 C665.203,257.326,665.103,259.325,665.003,261.37 C664.91,263.295,666.395,264.932,668.32,265.026 C670.246,265.12,671.883,263.635,671.977,261.709 C672.076,259.671,672.176,257.676,672.325,254.745 C672.423,252.82,670.942,251.179,669.017,251.081 C667.091,250.983,665.451,252.464,665.353,254.39 Z M664.679,268.362 C664.573,270.778,664.48,273.093,664.397,275.362 C664.327,277.289,665.832,278.907,667.759,278.978 C669.685,279.048,671.304,277.543,671.374,275.616 C671.456,273.365,671.549,271.067,671.654,268.667 C671.738,266.741,670.245,265.111,668.319,265.027 C666.393,264.943,664.763,266.436,664.679,268.362 Z M664.173,282.37 C664.109,284.733,664.057,287.065,664.018,289.386 C663.986,291.314,665.522,292.903,667.45,292.935 C669.377,292.967,670.966,291.431,670.998,289.503 C671.037,287.208,671.088,284.899,671.152,282.561 C671.205,280.633,669.685,279.029,667.758,278.976 C665.831,278.923,664.226,280.443,664.173,282.37 Z M663.939,296.404 C663.927,298.745,663.927,301.083,663.943,303.427 C663.955,305.354,665.528,306.907,667.456,306.895 C669.383,306.882,670.936,305.31,670.924,303.382 C670.909,301.066,670.908,298.756,670.921,296.442 C670.931,294.514,669.377,292.943,667.449,292.932 C665.521,292.922,663.95,294.476,663.939,296.404 Z"/><path fill-rule="evenodd" d="M470.95,268.826 C476.027,268.498,480.613,267.843,485.034,266.861 C492.404,265.387,497.317,263.258,501.575,259.982 C503.049,258.672,505.342,257.362,506.652,257.034 C507.143,257.034,508.126,256.871,508.781,256.871 C509.927,256.871,510.091,256.871,510.91,257.362 C515.496,260.637,518.771,262.275,524.503,264.24 C534.165,267.516,545.465,269.153,557.584,269.153 C571.668,269.153,584.77,266.533,593.614,261.947 C603.767,256.543,608.353,248.191,605.569,240.002 C602.948,231.814,594.105,225.263,588.045,226.573 C586.244,227.065,583.951,228.702,583.46,230.012 L583.296,230.504 L583.624,230.831 C584.115,231.323,585.589,231.814,588.537,232.305 C591.812,232.96,592.958,233.288,593.941,233.943 C595.415,234.926,595.743,236.072,595.743,238.037 C595.579,240.002,595.087,240.821,593.122,242.95 C590.338,245.571,588.373,246.553,585.261,246.717 C583.132,246.717,577.198,246.665,574.742,245.682 C571.302,244.372,572.979,242.131,559.877,231.814 C547.758,222.315,542.517,219.04,535.475,216.747 C531.545,215.437,528.597,214.946,524.667,214.946 C519.59,214.946,515.004,216.092,509.6,218.549 C508.617,219.04,507.635,219.367,507.307,219.367 C506.98,219.367,505.997,219.04,504.523,218.221 C499.282,215.601,493.878,214.454,488.965,214.946 C480.776,215.764,476.502,218.072,465.366,227.571 C456.686,234.941,451.953,237.873,449.005,239.675 C441.963,244.097,435.249,246.553,430.336,246.553 C427.551,246.553,425.914,245.898,424.276,244.26 C422.802,242.623,421.983,240.33,421.983,237.873 C421.983,236.236,422.311,235.089,423.457,234.27 C424.604,233.288,425.914,232.633,428.862,232.141 C431.973,231.486,433.283,230.995,433.938,230.176 C434.757,229.357,434.594,229.03,433.12,228.211 C431.482,227.392,429.844,226.901,428.043,226.737 C424.112,226.573,420.182,228.047,417.07,231.159 C412.976,235.253,410.683,240.985,411.338,246.062 C411.666,249.992,413.631,253.595,416.743,256.543 C419.854,259.655,424.44,262.275,430.172,264.404 C436.886,266.861,448.023,268.826,457.685,269.153 C460.469,269.317,468.002,269.153,470.95,268.826 Z"/><g><path d="M531.679,200.755 C530.716,190.784,523.325,184.526,513.765,182.996 C504.532,181.518,494.479,185.894,488.015,192.358 C480.745,199.628,480.455,209.74,485.545,218.354 C490.567,226.853,501.692,229.662,510.805,227.536 C523.275,224.628,532.49,213.722,531.679,200.755"/><radialGradient id="600000c3d080" xlink:href="#6000020af600" cx="496.627" cy="198.166" r="44.8679"/><path fill="url(#600000c3d080)" stroke="#000" stroke-width="0.579843" d="M527.087,204.47 C526.221,213.531,519,220.811,510.304,222.923 C501.102,225.158,490.941,221.614,487.634,212.152 C485.946,207.321,486.26,202.365,489.163,198.121 C491.612,194.543,495.561,191.743,499.472,189.965 C507.546,186.297,519.09,185.889,524.714,194.068 C526.845,197.168,527.217,200.817,527.087,204.47"/></g><path fill="none" stroke="#000" stroke-width="9.30855" d="M606.369,156.476 C606.369,181.645,584.304,202.049,557.085,202.049 C529.867,202.049,507.802,181.645,507.802,156.476 C507.802,131.306,529.867,110.902,557.085,110.902 C584.304,110.902,606.369,131.306,606.369,156.476 Z"/></g></g><g><path fill="none" stroke="#000" stroke-opacity="0.01" stroke-width="0.125" d="M14.0269,43.838 L184.859,43.838 L184.859,197.919 L14.0269,197.919 L14.0269,43.838 Z"/><g><path fill="#fff" fill-rule="evenodd" d="M135.106,192.524 C148.099,190.972,161.674,176.621,167.686,157.81 C170.207,150.635,171.176,144.042,171.176,136.09 C171.176,128.139,170.207,121.546,167.686,114.371 C161.674,95.5595,148.099,81.2088,135.106,79.6574 C132.779,79.4635,64.9038,79.4635,62.5766,79.6574 C54.6256,80.6271,46.2867,86.4449,39.4992,95.5595 C32.3238,105.062,27.8635,117.279,26.6999,130.079 C26.3121,133.375,26.506,141.908,26.8939,145.011 C28.8331,158.78,34.4571,171.385,42.796,180.694 C48.6138,187.288,55.9831,191.748,62.3827,192.524 C64.322,192.717,133.166,192.717,135.106,192.524 Z"/><path fill="#090909" fill-rule="evenodd" d="M135.106,192.524 C148.099,190.972,161.674,176.621,167.686,157.81 C170.207,150.635,171.176,144.042,171.176,136.09 C171.176,128.139,170.207,121.546,167.686,114.371 C161.674,95.5595,148.099,81.2088,135.106,79.6574 C132.779,79.4635,64.9038,79.4635,62.5766,79.6574 C54.6256,80.6271,46.2867,86.4449,39.4992,95.5595 C32.3238,105.062,27.8635,117.279,26.6999,130.079 C26.3121,133.375,26.506,141.908,26.8939,145.011 C28.8331,158.78,34.4571,171.385,42.796,180.694 C48.6138,187.288,55.9831,191.748,62.3827,192.524 C64.322,192.717,133.166,192.717,135.106,192.524 Z M61.9948,187.869 C52.4924,185.736,42.4081,175.652,36.5903,162.465 C29.221,145.787,29.221,126.394,36.5903,109.716 C39.4992,102.929,42.9899,97.8867,47.8381,92.8445 C52.1045,88.772,55.5952,86.4449,59.8616,85.0874 C62.1888,84.3117,62.1888,84.3117,98.8412,84.3117 C139.566,84.3117,135.688,84.1178,139.178,85.4753 C147.323,88.772,156.05,98.2745,161.092,109.716 C167.686,124.261,168.461,141.133,163.419,156.453 C161.48,162.271,159.541,166.537,156.244,171.579 C150.426,180.112,142.669,186.318,135.688,187.869 C133.942,188.257,63.7402,188.257,61.9948,187.869 Z M77.3152,132.406 C77.5091,132.406,77.897,132.018,78.0909,131.63 C78.4787,131.242,78.4787,131.048,78.4787,115.922 C78.4787,104.092,78.4787,100.408,78.2848,100.02 L77.5091,99.2442 C76.9273,98.8563,76.5395,98.6624,74.2123,98.6624 C70.9155,98.6624,70.3338,98.8563,69.752,100.02 C69.3641,100.602,69.3641,101.765,69.3641,115.728 C69.3641,132.6,69.3641,131.824,70.7216,132.406 C71.3034,132.794,71.6913,132.794,74.2123,132.794 C75.5698,132.6,77.1212,132.6,77.3152,132.406 Z M126.961,130.273 C127.155,130.079,127.543,129.691,127.93,129.303 C128.318,128.721,128.318,128.721,128.318,115.922 C128.318,102.153,128.318,102.347,127.349,101.571 C126.961,101.183,126.573,100.99,124.052,100.99 C121.725,100.99,121.143,100.99,120.561,101.377 C119.204,101.959,119.204,101.377,119.204,115.728 C119.204,130.079,119.204,129.497,120.367,130.079 C121.143,130.467,126.185,130.661,126.961,130.273 Z"/><path fill="#090909" fill-rule="evenodd" d="M114.769,83.37 C115.3,83.107,116.095,82.5811,116.361,82.0553 C116.891,81.5294,116.891,81.2664,116.891,72.3262 C116.891,63.9118,116.891,62.86,116.361,61.0194 C115.034,55.4975,111.055,51.2903,106.015,49.4497 C96.7295,46.0313,86.9139,50.7644,83.7305,59.9676 C83.1999,61.5453,83.1999,62.3341,82.9346,71.5373 C82.9346,81.5294,82.9346,81.5294,83.4652,82.0553 C84.5263,83.6329,84.5263,83.6329,99.9129,83.6329 C111.32,83.6329,114.238,83.6329,114.769,83.37 Z"/><path d="M148.851,118.145 C149.979,118.046,151.148,117.893,152.441,117.682 C153.392,117.526,154.037,116.629,153.882,115.678 C153.727,114.727,152.83,114.081,151.878,114.237 C150.666,114.435,149.58,114.577,148.545,114.668 C147.585,114.753,146.875,115.6,146.959,116.56 C147.044,117.52,147.891,118.23,148.851,118.145 Z M155.925,117.048 C156.005,117.032,156.055,117.022,156.185,116.997 C157.961,116.654,158.483,116.555,159.326,116.407 C160.276,116.241,160.911,115.336,160.744,114.387 C160.578,113.437,159.674,112.802,158.724,112.969 C157.853,113.121,157.32,113.222,155.521,113.57 C155.392,113.595,155.343,113.605,155.263,113.62 C154.317,113.803,153.698,114.718,153.881,115.665 C154.064,116.611,154.979,117.23,155.925,117.048 Z M162.659,115.927 C163.834,115.806,164.904,115.76,165.909,115.794 C166.873,115.827,167.68,115.072,167.713,114.109 C167.745,113.145,166.991,112.338,166.027,112.305 C164.852,112.266,163.626,112.318,162.302,112.455 C161.343,112.553,160.646,113.411,160.744,114.369 C160.843,115.328,161.7,116.026,162.659,115.927 Z M169.007,116.204 C169.072,116.22,169.135,116.236,169.199,116.253 C170.039,116.473,170.928,116.84,171.805,117.33 C172.646,117.801,173.71,117.5,174.18,116.658 C174.65,115.817,174.35,114.754,173.508,114.283 C172.381,113.654,171.22,113.174,170.086,112.876 C170.005,112.855,169.924,112.834,169.842,112.814 C168.906,112.584,167.961,113.156,167.73,114.092 C167.5,115.028,168.072,115.973,169.007,116.204 Z M174.323,119.134 C175.111,119.842,175.791,120.619,176.325,121.426 C176.858,122.229,177.941,122.449,178.744,121.916 C179.548,121.384,179.768,120.301,179.235,119.497 C178.532,118.437,177.658,117.438,176.657,116.538 C175.941,115.894,174.837,115.952,174.192,116.669 C173.548,117.386,173.606,118.489,174.323,119.134 Z M177.493,124.033 C177.543,124.245,177.58,124.456,177.606,124.666 C177.714,125.546,177.815,126.419,177.908,127.287 C178.011,128.245,178.872,128.938,179.83,128.835 C180.789,128.732,181.482,127.872,181.379,126.913 C181.284,126.028,181.181,125.138,181.071,124.239 C181.03,123.906,180.97,123.573,180.893,123.243 C180.675,122.304,179.737,121.72,178.798,121.938 C177.859,122.156,177.275,123.095,177.493,124.033 Z M178.243,130.727 C178.343,131.881,178.43,133.028,178.505,134.172 C178.569,135.133,179.4,135.862,180.362,135.799 C181.323,135.735,182.052,134.904,181.989,133.943 C181.912,132.775,181.823,131.603,181.72,130.425 C181.637,129.465,180.791,128.754,179.831,128.837 C178.87,128.921,178.159,129.767,178.243,130.727 Z M178.696,137.621 C178.747,138.769,178.787,139.919,178.815,141.074 C178.839,142.037,179.639,142.8,180.603,142.776 C181.567,142.752,182.329,141.952,182.305,140.988 C182.276,139.81,182.236,138.637,182.183,137.465 C182.14,136.502,181.324,135.756,180.361,135.799 C179.399,135.843,178.653,136.658,178.696,137.621 Z M178.867,144.531 C178.873,145.668,178.869,146.819,178.856,147.991 C178.845,148.955,179.617,149.745,180.581,149.756 C181.545,149.767,182.335,148.995,182.346,148.031 C182.36,146.839,182.364,145.669,182.358,144.511 C182.352,143.547,181.566,142.77,180.603,142.776 C179.639,142.781,178.862,143.567,178.867,144.531 Z M178.79,151.459 C178.761,152.577,178.724,153.726,178.679,154.927 C178.643,155.891,179.394,156.701,180.358,156.737 C181.321,156.773,182.131,156.021,182.167,155.058 C182.213,153.844,182.25,152.682,182.279,151.549 C182.305,150.586,181.544,149.784,180.58,149.759 C179.616,149.734,178.815,150.495,178.79,151.459 Z M178.534,158.401 C178.485,159.462,178.432,160.574,178.367,161.879 C178.319,162.842,179.06,163.662,180.023,163.71 C180.986,163.758,181.805,163.016,181.853,162.053 C181.918,160.744,181.972,159.626,182.021,158.559 C182.065,157.596,181.32,156.78,180.357,156.736 C179.394,156.693,178.578,157.438,178.534,158.401 Z M178.19,165.364 C178.115,166.832,178.065,167.832,178.015,168.854 C177.968,169.817,178.711,170.635,179.674,170.682 C180.636,170.729,181.455,169.986,181.502,169.024 C181.551,168.005,181.602,167.007,181.676,165.541 C181.725,164.579,180.985,163.759,180.022,163.71 C179.059,163.661,178.239,164.401,178.19,165.364 Z M177.853,172.35 C177.8,173.558,177.753,174.716,177.712,175.85 C177.677,176.813,178.43,177.623,179.393,177.658 C180.356,177.693,181.165,176.94,181.201,175.977 C181.241,174.851,181.288,173.702,181.34,172.502 C181.382,171.539,180.636,170.725,179.673,170.682 C178.71,170.64,177.895,171.387,177.853,172.35 Z M177.6,179.354 C177.568,180.535,177.542,181.702,177.522,182.862 C177.506,183.826,178.274,184.62,179.238,184.636 C180.202,184.653,180.996,183.885,181.013,182.921 C181.032,181.773,181.058,180.619,181.09,179.449 C181.116,178.486,180.356,177.683,179.392,177.657 C178.429,177.631,177.626,178.391,177.6,179.354 Z M177.483,186.371 C177.477,187.542,177.477,188.711,177.485,189.882 C177.491,190.846,178.277,191.623,179.241,191.616 C180.205,191.61,180.982,190.824,180.975,189.86 C180.968,188.702,180.968,187.547,180.974,186.39 C180.979,185.426,180.202,184.64,179.238,184.635 C178.274,184.63,177.488,185.407,177.483,186.371 Z"/><path fill-rule="evenodd" d="M80.9886,172.582 C83.527,172.418,85.8198,172.091,88.0307,171.599 C91.7155,170.862,94.1721,169.798,96.3011,168.16 C97.038,167.505,98.1844,166.85,98.8395,166.686 C99.0851,166.686,99.5764,166.604,99.904,166.604 C100.477,166.604,100.559,166.604,100.968,166.85 C103.261,168.488,104.899,169.307,107.765,170.289 C112.596,171.927,118.246,172.746,124.306,172.746 C131.348,172.746,137.898,171.436,142.32,169.143 C147.397,166.441,149.69,162.264,148.298,158.17 C146.988,154.076,142.566,150.801,139.536,151.456 C138.635,151.701,137.489,152.52,137.243,153.175 L137.161,153.421 L137.325,153.585 C137.571,153.83,138.308,154.076,139.782,154.322 C141.419,154.649,141.993,154.813,142.484,155.14 C143.221,155.632,143.385,156.205,143.385,157.188 C143.303,158.17,143.057,158.58,142.075,159.644 C140.683,160.954,139.7,161.446,138.144,161.527 C137.08,161.527,134.113,161.502,132.884,161.01 C131.165,160.355,132.003,159.235,125.452,154.076 C119.393,149.327,116.772,147.689,113.251,146.543 C111.286,145.887,109.812,145.642,107.847,145.642 C105.308,145.642,103.016,146.215,100.313,147.443 C99.8221,147.689,99.3308,147.853,99.167,147.853 C99.0032,147.853,98.5119,147.689,97.775,147.28 C95.1547,145.969,92.4525,145.396,89.9959,145.642 C85.9017,146.051,83.7647,147.205,78.1966,151.955 C73.8567,155.639,71.49,157.106,70.0161,158.006 C66.495,160.217,63.1378,161.446,60.6812,161.446 C59.2892,161.446,58.4703,161.118,57.6515,160.299 C56.9145,159.48,56.5051,158.334,56.5051,157.106 C56.5051,156.287,56.6689,155.714,57.2421,155.304 C57.8153,154.813,58.4703,154.485,59.9443,154.24 C61.5001,153.912,62.1552,153.667,62.4827,153.257 C62.8921,152.848,62.8102,152.684,62.0733,152.274 C61.2544,151.865,60.4356,151.619,59.5348,151.538 C57.5696,151.456,55.6044,152.193,54.0486,153.748 C52.0015,155.796,50.8551,158.661,51.1826,161.2 C51.3464,163.165,52.329,164.967,53.8848,166.441 C55.4406,167.996,57.7334,169.307,60.5993,170.371 C63.9566,171.599,69.5248,172.582,74.356,172.746 C75.748,172.828,79.5147,172.746,80.9886,172.582 Z"/><g><path d="M111.353,138.546 C110.871,133.561,107.176,130.432,102.396,129.667 C97.7793,128.928,92.7532,131.116,89.5212,134.348 C85.8861,137.983,85.7409,143.039,88.2861,147.346 C90.7971,151.595,96.3595,153,100.916,151.937 C107.151,150.483,111.758,145.03,111.353,138.546"/><radialGradient id="600000c38630" xlink:href="#6000020af600" cx="93.8268" cy="137.252" r="22.4339"/><path fill="url(#600000c38630)" stroke="#000" stroke-width="0.289921" d="M109.057,140.404 C108.624,144.935,105.013,148.575,100.665,149.631 C96.0644,150.748,90.9841,148.976,89.3307,144.245 C88.4864,141.829,88.6436,139.351,90.0952,137.23 C91.3195,135.44,93.2939,134.04,95.2497,133.151 C99.2866,131.317,105.058,131.114,107.87,135.203 C108.936,136.753,109.122,138.578,109.057,140.404"/></g><path fill="none" stroke="#000" stroke-width="4.65427" d="M148.698,116.407 C148.698,128.991,137.666,139.193,124.056,139.193 C110.447,139.193,99.4143,128.991,99.4143,116.407 C99.4143,103.822,110.447,93.6202,124.056,93.6202 C137.666,93.6202,148.698,103.822,148.698,116.407 Z"/></g></g><g><g><path fill="none" stroke="#000" stroke-opacity="0.01" stroke-width="0.125" d="M14.0269,404.323 L184.859,404.323 L184.859,558.404 L14.0269,558.404 L14.0269,404.323 Z"/><g><path fill="#fff" fill-rule="evenodd" d="M135.106,553.008 C148.099,551.457,161.674,537.106,167.686,518.295 C170.207,511.12,171.176,504.526,171.176,496.575 C171.176,488.624,170.207,482.031,167.686,474.855 C161.674,456.044,148.099,441.694,135.106,440.142 C132.779,439.948,64.9038,439.948,62.5766,440.142 C54.6256,441.112,46.2867,446.93,39.4992,456.044 C32.3238,465.547,27.8635,477.764,26.6999,490.563 C26.3121,493.86,26.506,502.393,26.8939,505.496 C28.8331,519.265,34.4571,531.87,42.796,541.179 C48.6138,547.772,55.9831,552.233,62.3827,553.008 C64.322,553.202,133.166,553.202,135.106,553.008 Z"/><path fill="#090909" fill-rule="evenodd" d="M135.106,553.008 C148.099,551.457,161.674,537.106,167.686,518.295 C170.207,511.12,171.176,504.526,171.176,496.575 C171.176,488.624,170.207,482.031,167.686,474.855 C161.674,456.044,148.099,441.694,135.106,440.142 C132.779,439.948,64.9038,439.948,62.5766,440.142 C54.6256,441.112,46.2867,446.93,39.4992,456.044 C32.3238,465.547,27.8635,477.764,26.6999,490.563 C26.3121,493.86,26.506,502.393,26.8939,505.496 C28.8331,519.265,34.4571,531.87,42.796,541.179 C48.6138,547.772,55.9831,552.233,62.3827,553.008 C64.322,553.202,133.166,553.202,135.106,553.008 Z M61.9948,548.354 C52.4924,546.221,42.4081,536.137,36.5903,522.949 C29.221,506.272,29.221,486.879,36.5903,470.201 C39.4992,463.414,42.9899,458.371,47.8381,453.329 C52.1045,449.257,55.5952,446.93,59.8616,445.572 C62.1888,444.796,62.1888,444.796,98.8412,444.796 C139.566,444.796,135.688,444.602,139.178,445.96 C147.323,449.257,156.05,458.759,161.092,470.201 C167.686,484.746,168.461,501.617,163.419,516.938 C161.48,522.756,159.541,527.022,156.244,532.064 C150.426,540.597,142.669,546.803,135.688,548.354 C133.942,548.742,63.7402,548.742,61.9948,548.354 Z M77.3152,492.891 C77.5091,492.891,77.897,492.503,78.0909,492.115 C78.4787,491.727,78.4787,491.533,78.4787,476.407 C78.4787,464.577,78.4787,460.892,78.2848,460.505 L77.5091,459.729 C76.9273,459.341,76.5395,459.147,74.2123,459.147 C70.9155,459.147,70.3338,459.341,69.752,460.505 C69.3641,461.086,69.3641,462.25,69.3641,476.213 C69.3641,493.085,69.3641,492.309,70.7216,492.891 C71.3034,493.278,71.6913,493.278,74.2123,493.278 C75.5698,493.085,77.1212,493.085,77.3152,492.891 Z M126.961,490.757 C127.155,490.563,127.543,490.176,127.93,489.788 C128.318,489.206,128.318,489.206,128.318,476.407 C128.318,462.638,128.318,462.832,127.349,462.056 C126.961,461.668,126.573,461.474,124.052,461.474 C121.725,461.474,121.143,461.474,120.561,461.862 C119.204,462.444,119.204,461.862,119.204,476.213 C119.204,490.563,119.204,489.982,120.367,490.563 C121.143,490.951,126.185,491.145,126.961,490.757 Z"/><path fill="#090909" fill-rule="evenodd" d="M114.769,443.855 C115.3,443.592,116.095,443.066,116.361,442.54 C116.891,442.014,116.891,441.751,116.891,432.811 C116.891,424.397,116.891,423.345,116.361,421.504 C115.034,415.982,111.055,411.775,106.015,409.934 C96.7295,406.516,86.9139,411.249,83.7305,420.452 C83.1999,422.03,83.1999,422.819,82.9346,432.022 C82.9346,442.014,82.9346,442.014,83.4652,442.54 C84.5263,444.118,84.5263,444.118,99.9129,444.118 C111.32,444.118,114.238,444.118,114.769,443.855 Z"/><path d="M148.851,478.63 C149.979,478.531,151.148,478.377,152.441,478.166 C153.392,478.011,154.037,477.114,153.882,476.163 C153.727,475.211,152.83,474.566,151.878,474.721 C150.666,474.919,149.58,475.062,148.545,475.153 C147.585,475.237,146.875,476.084,146.959,477.044 C147.044,478.005,147.891,478.715,148.851,478.63 Z M155.925,477.532 C156.005,477.517,156.055,477.507,156.185,477.482 C157.961,477.138,158.483,477.039,159.326,476.892 C160.276,476.725,160.911,475.821,160.744,474.871 C160.578,473.922,159.674,473.287,158.724,473.453 C157.853,473.606,157.32,473.707,155.521,474.055 C155.392,474.08,155.343,474.09,155.263,474.105 C154.317,474.288,153.698,475.203,153.881,476.15 C154.064,477.096,154.979,477.715,155.925,477.532 Z M162.659,476.412 C163.834,476.291,164.904,476.245,165.909,476.279 C166.873,476.311,167.68,475.557,167.713,474.593 C167.745,473.63,166.991,472.823,166.027,472.79 C164.852,472.75,163.626,472.803,162.302,472.939 C161.343,473.038,160.646,473.895,160.744,474.854 C160.843,475.813,161.7,476.51,162.659,476.412 Z M169.007,476.689 C169.072,476.704,169.135,476.721,169.199,476.737 C170.039,476.958,170.928,477.325,171.805,477.815 C172.646,478.285,173.71,477.985,174.18,477.143 C174.65,476.302,174.35,475.238,173.508,474.768 C172.381,474.138,171.22,473.659,170.086,473.361 C170.005,473.34,169.924,473.319,169.842,473.299 C168.906,473.069,167.961,473.64,167.73,474.576 C167.5,475.512,168.072,476.458,169.007,476.689 Z M174.323,479.618 C175.111,480.327,175.791,481.103,176.325,481.91 C176.858,482.714,177.941,482.934,178.744,482.401 C179.548,481.869,179.768,480.786,179.235,479.982 C178.532,478.922,177.658,477.923,176.657,477.023 C175.941,476.378,174.837,476.437,174.192,477.154 C173.548,477.87,173.606,478.974,174.323,479.618 Z M177.493,484.518 C177.543,484.73,177.58,484.941,177.606,485.151 C177.714,486.031,177.815,486.904,177.908,487.771 C178.011,488.73,178.872,489.423,179.83,489.32 C180.789,489.217,181.482,488.357,181.379,487.398 C181.284,486.513,181.181,485.623,181.071,484.724 C181.03,484.39,180.97,484.058,180.893,483.727 C180.675,482.788,179.737,482.204,178.798,482.423 C177.859,482.641,177.275,483.579,177.493,484.518 Z M178.243,491.212 C178.343,492.365,178.43,493.513,178.505,494.656 C178.569,495.618,179.4,496.347,180.362,496.283 C181.323,496.22,182.052,495.389,181.989,494.427 C181.912,493.259,181.823,492.088,181.72,490.91 C181.637,489.95,180.791,489.239,179.831,489.322 C178.87,489.405,178.159,490.251,178.243,491.212 Z M178.696,498.106 C178.747,499.254,178.787,500.403,178.815,501.559 C178.839,502.522,179.639,503.284,180.603,503.261 C181.567,503.237,182.329,502.437,182.305,501.473 C182.276,500.294,182.236,499.122,182.183,497.95 C182.14,496.987,181.324,496.241,180.361,496.284 C179.399,496.327,178.653,497.143,178.696,498.106 Z M178.867,505.015 C178.873,506.153,178.869,507.303,178.856,508.475 C178.845,509.439,179.617,510.23,180.581,510.241 C181.545,510.252,182.335,509.479,182.346,508.516 C182.36,507.324,182.364,506.154,182.358,504.996 C182.352,504.032,181.566,503.255,180.603,503.26 C179.639,503.266,178.862,504.051,178.867,505.015 Z M178.79,511.943 C178.761,513.062,178.724,514.21,178.679,515.412 C178.643,516.375,179.394,517.186,180.358,517.222 C181.321,517.258,182.131,516.506,182.167,515.543 C182.213,514.328,182.25,513.166,182.279,512.034 C182.305,511.07,181.544,510.269,180.58,510.244 C179.616,510.219,178.815,510.98,178.79,511.943 Z M178.534,518.885 C178.485,519.946,178.432,521.059,178.367,522.364 C178.319,523.327,179.06,524.146,180.023,524.194 C180.986,524.242,181.805,523.501,181.853,522.538 C181.918,521.229,181.972,520.111,182.021,519.044 C182.065,518.081,181.32,517.265,180.357,517.221 C179.394,517.177,178.578,517.922,178.534,518.885 Z M178.19,525.849 C178.115,527.317,178.065,528.316,178.015,529.339 C177.968,530.301,178.711,531.12,179.674,531.167 C180.636,531.214,181.455,530.471,181.502,529.508 C181.551,528.489,181.602,527.492,181.676,526.026 C181.725,525.064,180.985,524.243,180.022,524.194 C179.059,524.145,178.239,524.886,178.19,525.849 Z M177.853,532.835 C177.8,534.043,177.753,535.2,177.712,536.335 C177.677,537.298,178.43,538.107,179.393,538.143 C180.356,538.178,181.165,537.425,181.201,536.462 C181.241,535.336,181.288,534.187,181.34,532.987 C181.382,532.024,180.636,531.209,179.673,531.167 C178.71,531.125,177.895,531.872,177.853,532.835 Z M177.6,539.839 C177.568,541.02,177.542,542.186,177.522,543.347 C177.506,544.311,178.274,545.105,179.238,545.121 C180.202,545.137,180.996,544.369,181.013,543.405 C181.032,542.258,181.058,541.103,181.09,539.934 C181.116,538.97,180.356,538.168,179.392,538.142 C178.429,538.115,177.626,538.875,177.6,539.839 Z M177.483,546.856 C177.477,548.026,177.477,549.195,177.485,550.367 C177.491,551.331,178.277,552.107,179.241,552.101 C180.205,552.095,180.982,551.309,180.975,550.345 C180.968,549.187,180.968,548.032,180.974,546.875 C180.979,545.911,180.202,545.125,179.238,545.12 C178.274,545.115,177.488,545.892,177.483,546.856 Z"/><path fill-rule="evenodd" d="M80.9886,533.067 C83.527,532.903,85.8198,532.575,88.0307,532.084 C91.7155,531.347,94.1721,530.283,96.3011,528.645 C97.038,527.99,98.1844,527.335,98.8395,527.171 C99.0851,527.171,99.5764,527.089,99.904,527.089 C100.477,527.089,100.559,527.089,100.968,527.335 C103.261,528.972,104.899,529.791,107.765,530.774 C112.596,532.412,118.246,533.23,124.306,533.23 C131.348,533.23,137.898,531.92,142.32,529.627 C147.397,526.925,149.69,522.749,148.298,518.655 C146.988,514.561,142.566,511.285,139.536,511.94 C138.635,512.186,137.489,513.005,137.243,513.66 L137.161,513.906 L137.325,514.069 C137.571,514.315,138.308,514.561,139.782,514.806 C141.419,515.134,141.993,515.298,142.484,515.625 C143.221,516.116,143.385,516.69,143.385,517.672 C143.303,518.655,143.057,519.064,142.075,520.129 C140.683,521.439,139.7,521.93,138.144,522.012 C137.08,522.012,134.113,521.986,132.884,521.495 C131.165,520.84,132.003,519.719,125.452,514.561 C119.393,509.811,116.772,508.174,113.251,507.027 C111.286,506.372,109.812,506.127,107.847,506.127 C105.308,506.127,103.016,506.7,100.313,507.928 C99.8221,508.174,99.3308,508.337,99.167,508.337 C99.0032,508.337,98.5119,508.174,97.775,507.764 C95.1547,506.454,92.4525,505.881,89.9959,506.127 C85.9017,506.536,83.7647,507.69,78.1966,512.439 C73.8567,516.124,71.49,517.59,70.0161,518.491 C66.495,520.702,63.1378,521.93,60.6812,521.93 C59.2892,521.93,58.4703,521.603,57.6515,520.784 C56.9145,519.965,56.5051,518.819,56.5051,517.59 C56.5051,516.772,56.6689,516.198,57.2421,515.789 C57.8153,515.298,58.4703,514.97,59.9443,514.724 C61.5001,514.397,62.1552,514.151,62.4827,513.742 C62.8921,513.332,62.8102,513.169,62.0733,512.759 C61.2544,512.35,60.4356,512.104,59.5348,512.022 C57.5696,511.94,55.6044,512.677,54.0486,514.233 C52.0015,516.28,50.8551,519.146,51.1826,521.685 C51.3464,523.65,52.329,525.451,53.8848,526.925 C55.4406,528.481,57.7334,529.791,60.5993,530.856 C63.9566,532.084,69.5248,533.067,74.356,533.23 C75.748,533.312,79.5147,533.23,80.9886,533.067 Z"/><g><path d="M111.353,499.031 C110.871,494.046,107.176,490.917,102.396,490.152 C97.7793,489.413,92.7532,491.601,89.5212,494.833 C85.8861,498.468,85.7409,503.524,88.2861,507.831 C90.7971,512.08,96.3595,513.485,100.916,512.422 C107.151,510.968,111.758,505.515,111.353,499.031"/><radialGradient id="600000c0a310" xlink:href="#6000020af600" cx="93.8268" cy="497.737" r="22.4339"/><path fill="url(#600000c0a310)" stroke="#000" stroke-width="0.289921" d="M109.057,500.889 C108.624,505.419,105.013,509.059,100.665,510.115 C96.0644,511.233,90.9841,509.461,89.3307,504.73 C88.4864,502.314,88.6436,499.836,90.0952,497.714 C91.3195,495.925,93.2939,494.525,95.2497,493.636 C99.2866,491.802,105.058,491.598,107.87,495.688 C108.936,497.238,109.122,499.062,109.057,500.889"/></g><path fill="none" stroke="#000" stroke-width="4.65427" d="M148.698,476.892 C148.698,489.476,137.666,499.678,124.056,499.678 C110.447,499.678,99.4143,489.476,99.4143,476.892 C99.4143,464.307,110.447,454.105,124.056,454.105 C137.666,454.105,148.698,464.307,148.698,476.892 Z"/></g></g><g><path d="M642.061,472.687 L642.061,481.028 L626.072,481.028 L626.072,504.038 C626.072,508.289,627.535,510.414,630.46,510.414 C633.675,510.414,635.283,507.841,635.283,502.696 L635.283,500.874 L643.756,500.874 L643.756,503.175 C643.756,505.284,643.698,507.09,643.582,508.592 C643.031,515.591,638.31,519.09,629.417,519.09 C620.554,519.09,616.122,514.6,616.122,505.62 L616.122,481.028 L610.734,481.028 L610.734,472.687 L616.122,472.687 L616.256,453.081 L625.756,453.081 L626.072,472.687 Z"/><path fill-rule="evenodd" d="M596.961,503.846 L606.954,503.846 L606.954,505.62 C606.954,514.568,600.871,519.042,588.705,519.042 C580.45,519.042,575.048,517.492,572.499,514.393 C569.95,511.293,568.675,504.725,568.675,494.69 C568.675,485.774,570.008,479.782,572.673,476.714 C575.337,473.646,580.537,472.112,588.271,472.112 C595.686,472.112,600.654,473.606,603.174,476.594 C605.694,479.582,606.954,485.455,606.954,494.211 L606.954,497.567 L578.842,497.567 C578.784,498.589,578.755,499.26,578.755,499.58 C578.755,504.086,579.385,507.09,580.646,508.592 C581.906,510.094,584.418,510.845,588.184,510.845 C591.834,510.845,594.209,510.406,595.31,509.527 C596.41,508.648,596.961,506.755,596.961,503.846 Z M597.048,490.855 L597.004,489.034 C597.004,485.391,596.432,483.026,595.288,481.939 C594.144,480.853,591.66,480.309,587.836,480.309 C584.129,480.309,581.717,480.964,580.602,482.275 C579.487,483.585,578.929,486.445,578.929,490.855 L597.048,490.855 Z"/><path d="M537.392,453.081 L537.392,490.52 L539.955,490.52 L551.165,472.687 L562.723,472.687 L548.254,494.259 L565.677,518.515 L553.338,518.515 L539.825,498.19 L537.392,498.19 L537.392,518.515 L527.442,518.515 L527.442,453.081 Z"/><path d="M510.236,501.018 L520.142,501.018 L520.142,502.6 L519.534,509.551 C518.318,515.879,512.379,519.042,501.72,519.042 C493.899,519.042,488.7,517.484,486.122,514.369 C483.544,511.253,482.255,504.981,482.255,495.553 C482.255,486.349,483.544,480.149,486.122,476.954 C488.7,473.758,493.711,472.16,501.155,472.16 C508.339,472.16,513.205,473.318,515.754,475.635 C518.303,477.952,519.578,482.355,519.578,488.842 L509.715,488.842 C509.715,483.505,506.919,480.837,501.329,480.837 C497.36,480.837,494.869,481.683,493.856,483.377 C492.842,485.071,492.335,489.226,492.335,495.841 C492.335,502.232,492.892,506.251,494.008,507.897 C495.123,509.543,497.853,510.366,502.198,510.366 C505.616,510.366,507.81,509.799,508.78,508.664 C509.751,507.53,510.236,504.981,510.236,501.018 Z"/><path fill-rule="evenodd" d="M455.968,472.16 C463.991,472.16,469.249,473.574,471.74,476.402 C474.231,479.231,475.477,485.199,475.477,494.307 C475.477,504.47,474.26,511.133,471.827,514.297 C469.394,517.461,464.267,519.042,456.446,519.042 C447.959,519.042,442.462,517.572,439.957,514.632 C437.451,511.692,436.198,505.221,436.198,495.218 C436.198,485.598,437.429,479.351,439.892,476.474 C442.354,473.598,447.712,472.16,455.968,472.16 Z M455.881,480.837 C451.739,480.837,449.103,481.659,447.973,483.305 C446.843,484.951,446.279,488.794,446.279,494.834 C446.279,501.737,446.815,506.051,447.886,507.777 C448.958,509.503,451.637,510.366,455.924,510.366 C460.067,510.366,462.681,509.455,463.767,507.633 C464.853,505.812,465.396,501.434,465.396,494.499 C465.396,488.65,464.831,484.911,463.702,483.281 C462.572,481.651,459.965,480.837,455.881,480.837 Z"/><path d="M428.378,485.295 L418.645,485.295 C418.587,484.911,418.544,484.624,418.515,484.432 C418.312,482.227,417.74,480.853,416.798,480.309 C415.857,479.766,413.576,479.494,409.955,479.494 C404.77,479.494,402.178,481.348,402.178,485.055 C402.178,487.58,402.634,489.082,403.546,489.561 C404.459,490.04,407.551,490.424,412.823,490.712 C419.919,491.095,424.54,492.134,426.683,493.828 C428.827,495.521,429.898,498.989,429.898,504.23 C429.898,509.823,428.472,513.697,425.618,515.855 C422.765,518.012,417.646,519.09,410.259,519.09 C403.162,519.09,398.311,518.116,395.704,516.166 C393.097,514.217,391.793,510.574,391.793,505.237 L391.793,504.086 L402.134,504.086 C401.989,504.725,401.902,505.237,401.873,505.62 C401.468,509.679,404.307,511.708,410.39,511.708 C416.675,511.708,419.818,509.695,419.818,505.668 C419.818,501.801,417.848,499.868,413.909,499.868 C405.016,499.868,399.158,498.941,396.334,497.087 C393.509,495.234,392.097,491.383,392.097,485.534 C392.097,480.293,393.386,476.746,395.964,474.892 C398.542,473.039,403.496,472.112,410.824,472.112 C417.747,472.112,422.403,473.007,424.793,474.796 C427.183,476.586,428.378,480.086,428.378,485.295 Z"/><path d="M387.752,472.687 L375.674,494.259 L389.099,518.515 L377.194,518.515 L368.852,501.881 L360.727,518.515 L348.518,518.515 L362.117,494.403 L350.125,472.687 L361.987,472.687 L368.852,487.212 L375.891,472.687 Z"/><path d="M343.999,472.687 L343.999,518.515 L334.049,518.515 L334.049,472.687 Z"/><path d="M343.999,453.081 L343.999,462.237 L334.049,462.237 L334.049,453.081 Z"/><path d="M286.863,472.687 L296.726,472.687 L296.335,480.405 L296.552,480.453 C298.493,474.924,302.838,472.16,309.587,472.16 C319.407,472.16,324.317,477.209,324.317,487.308 L324.317,518.515 L314.367,518.515 L314.367,490.903 L314.367,489.178 L314.149,485.966 C313.686,482.546,311.253,480.837,306.85,480.837 C300.159,480.837,296.813,484.336,296.813,491.335 L296.813,518.515 L286.863,518.515 Z"/><path d="M276.783,472.687 L276.783,518.515 L266.833,518.515 L267.398,510.653 L267.224,510.605 C265.283,516.23,260.823,519.042,253.842,519.042 C244.428,519.042,239.721,513.849,239.721,503.463 L239.721,472.687 L249.671,472.687 L249.671,500.826 C249.671,504.725,250.163,507.29,251.148,508.52 C252.133,509.751,254.175,510.366,257.274,510.366 C263.647,510.366,266.833,506.147,266.833,497.71 L266.833,472.687 Z"/><path d="M230.032,453.081 L230.032,462.237 L220.082,462.237 L220.082,453.081 Z"/><path fill-rule="evenodd" d="M230.032,472.687 L230.017,493.914 L230.032,496.001 L230.032,504.342 L230.032,528.933 C230.013,529.941,230.005,530.118,229.993,530.29 L229.988,537.481 C229.99,535.117,229.98,532.895,229.956,530.85 C229.162,538.716,224.769,542.404,216.736,542.404 C207.552,542.182,203.105,538.686,202.572,531.906 C202.43,529.482,202.398,528.071,202.398,526.489 L202.398,524.188 L210.87,524.188 L210.87,526.009 C211.078,531.466,212.679,533.727,215.693,533.727 C218.555,533.476,219.83,531.716,220.044,528.415 L220.082,472.687 L230.032,472.687 Z"/></g></g></svg>
